<?xml version="1.0" encoding="utf-8"?>
<!-- Generator: Adobe Illustrator 20.1.0, SVG Export Plug-In . SVG Version: 6.00 Build 0)  -->
<svg version="1.1" id="Layer_1" xmlns="http://www.w3.org/2000/svg" xmlns:xlink="http://www.w3.org/1999/xlink" x="0px" y="0px"
	 viewBox="0 0 256 256" style="enable-background:new 0 0 256 256;" xml:space="preserve">
<path d="M128,0C57.3,0,0,57.3,0,128s57.3,128,128,128s128-57.3,128-128S198.7,0,128,0z M128,234.2c-58.6,0-106.2-47.7-106.2-106.2
	S69.4,21.8,128,21.8c58.6,0,106.2,47.6,106.2,106.2S186.6,234.2,128,234.2z M121.5,151.7c-0.8-7.3-1.6-13.5-2.4-18.6
	c-0.8-5.1-1.5-9.6-2.2-13.3c-0.7-3.7-1.3-6.9-2-9.6c-0.6-2.7-1.1-5.2-1.6-7.6c-0.4-2.4-0.8-4.8-1-7.3c-0.2-2.5-0.4-5.3-0.4-8.6
	c0-3,0.4-5.7,1.2-8c0.8-2.4,1.8-4.4,3.1-6c1.3-1.6,2.7-2.9,4.4-3.8c1.7-0.9,3.3-1.3,5-1.3c1.7,0,3.4,0.4,5,1.3
	c1.7,0.9,3.1,2.1,4.4,3.8c1.3,1.6,2.3,3.6,3.1,6c0.8,2.4,1.2,5.1,1.2,8c0,3.3-0.1,6.1-0.4,8.6s-0.6,4.9-1,7.3
	c-0.4,2.4-0.9,4.9-1.5,7.6c-0.6,2.7-1.2,5.9-1.9,9.6c-0.7,3.7-1.4,8.2-2.2,13.3c-0.8,5.1-1.6,11.3-2.4,18.6H121.5z M114.2,172.1
	c0,0.1,0,0.2,0,0.4c0.2,4.7,3.5,9.2,7.9,10.6c4.5,1.5,9.8-0.1,12.7-3.8c2.9-3.7,3.3-9.2,0.9-13.2
	C129.7,156.2,114.1,160.8,114.2,172.1z"/>
</svg>
