<?xml version="1.0" encoding="utf-8"?>
<!-- Generator: Adobe Illustrator 21.0.2, SVG Export Plug-In . SVG Version: 6.00 Build 0)  -->
<svg version="1.1" id="Layer_1" xmlns="http://www.w3.org/2000/svg" xmlns:xlink="http://www.w3.org/1999/xlink" x="0px" y="0px"
	 viewBox="0 0 256 256" style="enable-background:new 0 0 256 256;" xml:space="preserve">
<title>cand</title>
<path d="M128,46c17.7,0,32,14.3,32,32s-14.3,32-32,32S96,95.7,96,78S110.3,46,128,46z M64.5,202.2c0.2-0.8,0.4-1.6,0.4-2.5
	c1.7-34.3,30.6-61,65-60c33.4,1,60,27.8,61.2,60.9c0,1.3,0.3,2.7,0.8,3.9l1.2,3c2,4.7,7,7.3,11.9,6.3l0,0c4.7-0.9,8.3-4.9,8.5-9.7
	c0-0.4,0-0.9,0-1.3v-0.1c0-35.4-21.8-67.1-54.8-79.9c25.4-17.5,31.3-52.6,12.7-77.5c-16.9-22.7-48.9-28.6-72.8-13.4
	c-26.3,16.7-33.2,51.6-15.7,77c3.8,5.5,8.5,10.2,14,14c-32.1,12.5-53.7,43-54.7,77.5c-0.1,1.8,0.4,4,1,6.2c1.4,5,6.2,8.2,11.3,7.5h0
	c4-0.6,7.3-3.4,8.5-7.2L64.5,202.2z"/>
</svg>
