<?xml version="1.0" encoding="utf-8"?>
<!-- Generator: Adobe Illustrator 21.0.2, SVG Export Plug-In . SVG Version: 6.00 Build 0)  -->
<svg version="1.1" id="Layer_1" xmlns="http://www.w3.org/2000/svg" xmlns:xlink="http://www.w3.org/1999/xlink" x="0px" y="0px"
	 viewBox="0 0 60 60" style="enable-background:new 0 0 60 60;" xml:space="preserve">
<title>customers</title>
<desc>Created with Sketch.</desc>
<g id="Page-1">
	<g id="customers">
		<path d="M44.3,30.5c-4.6,0-8.4-3.7-8.4-8.3s3.8-8.3,8.4-8.3s8.4,3.7,8.4,8.3S48.9,30.5,44.3,30.5z M44.3,25.9
			c2.1,0,3.8-1.7,3.8-3.8s-1.7-3.8-3.8-3.8c-2.1,0-3.8,1.7-3.8,3.8S42.2,25.9,44.3,25.9z M19.8,32.4c-6.2,0-11.2-5-11.2-11.2
			S13.6,10,19.8,10s11.2,5,11.2,11.2S26,32.4,19.8,32.4z M19.8,27.8c3.7,0,6.7-3,6.7-6.6s-3-6.6-6.7-6.6s-6.7,3-6.7,6.6
			S16.2,27.8,19.8,27.8z M6.6,48.7c0,1.3-1,2.3-2.3,2.3S2,50,2,48.7c0-7.5,6.1-13.6,13.7-13.6h7.6c7.6,0,13.7,6.1,13.7,13.6
			c0,1.3-1,2.3-2.3,2.3c-1.3,0-2.3-1-2.3-2.3c0-5-4.1-9.1-9.1-9.1h-7.6C10.7,39.6,6.6,43.7,6.6,48.7z M36.7,37.7
			c-1.3,0-2.3-1-2.3-2.3s1-2.3,2.3-2.3h11.9c5.2,0,9.4,4.4,9.4,9.8c0,1.3-1,2.3-2.3,2.3c-1.3,0-2.3-1-2.3-2.3c0-3-2.2-5.3-4.9-5.3
			H36.7z"/>
	</g>
</g>
</svg>
