<?xml version="1.0" encoding="utf-8"?>
<!-- Generator: Adobe Illustrator 22.1.0, SVG Export Plug-In . SVG Version: 6.00 Build 0)  -->
<svg version="1.1" xmlns="http://www.w3.org/2000/svg" xmlns:xlink="http://www.w3.org/1999/xlink" x="0px" y="0px"
	 viewBox="0 0 60 60" style="enable-background:new 0 0 60 60;" xml:space="preserve">
	<g id="Layer_2_1_">
		<g id="Layer_1-2">
			<path d="M32.4,23c0-8.4-6.7-15.2-15.1-15.2S2.1,14.6,2.1,22.9c0,3.5,1.2,7,3.5,9.7C2,35.9,0,40.5,0,45.3v6.4
				c0,1.3,1.1,2.4,2.4,2.4c1.3,0,2.4-1.1,2.4-2.4v-6.4c0-3.7,1.6-7.2,4.4-9.5c4.9,3.1,11.2,3.1,16.1,0c2.8,2.4,4.4,5.9,4.4,9.5v6.4
				c0,1.3,1.1,2.4,2.4,2.4s2.4-1.1,2.4-2.4v-6.4c0-4.8-2-9.4-5.6-12.7C31.2,29.9,32.4,26.5,32.4,23z M17.3,33.4
				c-5.7,0-10.4-4.6-10.4-10.4c0-5.7,4.6-10.4,10.4-10.4c5.7,0,10.4,4.6,10.4,10.3C27.6,28.7,23,33.4,17.3,33.4
				C17.3,33.4,17.3,33.4,17.3,33.4z"/>
			<path d="M56,34.9c3.6-5.5,2.1-13-3.4-16.6s-13-2.1-16.6,3.4c-3.6,5.5-2.1,13,3.4,16.6c4,2.6,9.2,2.6,13.3,0
				c1.7,1.6,2.6,3.8,2.6,6.1v5.1c0,1.3,1.1,2.4,2.4,2.4c1.3,0,2.4-1.1,2.4-2.4v-5.1C60,40.9,58.6,37.4,56,34.9z M46,35.5
				c-3.9,0.1-7.2-3.1-7.2-7c-0.1-3.9,3.1-7.2,7-7.2s7.2,3.1,7.2,7c0,0,0,0.1,0,0.1C53,32.3,49.8,35.4,46,35.5L46,35.5z"/>
		</g>
	</g>
</svg>
