<?xml version="1.0" encoding="utf-8"?>
<!-- Generator: Adobe Illustrator 20.0.0, SVG Export Plug-In . SVG Version: 6.00 Build 0)  -->
<svg version="1.1" id="Layer_1" xmlns="http://www.w3.org/2000/svg" xmlns:xlink="http://www.w3.org/1999/xlink" x="0px" y="0px"
   viewBox="0 0 256 256" style="enable-background:new 0 0 256 256;" xml:space="preserve">
<path d="M129.1,203.2c14.6,0,26.4,11.8,26.4,26.4S143.7,256,129.1,256s-26.4-11.8-26.4-26.4C102.7,215,114.6,203.2,129.1,203.2z
   M102.4,128c0,14.6,11.8,26.4,26.4,26.4c14.6,0,26.4-11.8,26.4-26.4s-11.8-26.4-26.4-26.4S102.4,113.4,102.4,128z M102.4,26.4
  c0,14.6,11.8,26.4,26.4,26.4c14.6,0,26.4-11.8,26.4-26.4S143.4,0,128.9,0C114.3,0,102.4,11.8,102.4,26.4z"/>
</svg>
