<?xml version="1.0" encoding="utf-8"?>
<!-- Generator: Adobe Illustrator 21.0.2, SVG Export Plug-In . SVG Version: 6.00 Build 0)  -->
<svg version="1.1" id="Layer_1" xmlns="http://www.w3.org/2000/svg" xmlns:xlink="http://www.w3.org/1999/xlink" x="0px" y="0px"
	 viewBox="0 0 60 60" style="enable-background:new 0 0 60 60;" xml:space="preserve">
<title>email</title>
<desc>Created with Sketch.</desc>
<g id="Page-1">
	<g id="email">
		<path d="M4.8,10h49.4c2.1,0,3.8,1.7,3.8,3.8v34.4c0,2.1-1.7,3.8-3.8,3.8H4.8C2.7,52,1,50.3,1,48.2V13.8C1,11.7,2.7,10,4.8,10z
			 M5.6,14.6v32.8h47.9V14.6H5.6z M13.7,21.5l15.8,10.6l15.8-10.6c1-0.7,2.5-0.4,3.2,0.6s0.4,2.5-0.6,3.2L30.8,36.7
			c-0.8,0.5-1.8,0.5-2.5,0L11.1,25.3c-1-0.7-1.3-2.1-0.6-3.2C11.2,21,12.6,20.8,13.7,21.5z"/>
	</g>
</g>
</svg>
