<?xml version="1.0" encoding="utf-8"?>
<!-- Generator: Adobe Illustrator 21.0.2, SVG Export Plug-In . SVG Version: 6.00 Build 0)  -->
<svg version="1.1" id="Layer_1" xmlns="http://www.w3.org/2000/svg" xmlns:xlink="http://www.w3.org/1999/xlink" x="0px" y="0px"
	 viewBox="0 0 60 60" style="enable-background:new 0 0 60 60;" xml:space="preserve">
<title>delete</title>
<desc>Created with Sketch.</desc>
<g id="Page-1">
	<g id="delete">
		<path d="M49.2,15.1v37.1c0,2.1-1.7,3.8-3.8,3.8H14.7c-2.1,0-3.8-1.7-3.8-3.8V15.1H9.3c-1.3,0-2.3-1-2.3-2.3s1-2.3,2.3-2.3h9.2V6.8
			c0-2.1,1.7-3.8,3.8-3.8h15.3c2.1,0,3.8,1.7,3.8,3.8v3.8h9.2c1.3,0,2.3,1,2.3,2.3s-1,2.3-2.3,2.3H49.2z M15.4,15.1v36.3h29.1V15.1
			H15.4z M36.1,20c1.3,0,2.3,1,2.3,2.3v22c0,1.3-1,2.3-2.3,2.3s-2.3-1-2.3-2.3v-22C33.8,21.1,34.9,20,36.1,20z M24.6,20
			c1.3,0,2.3,1,2.3,2.3v22c0,1.3-1,2.3-2.3,2.3s-2.3-1-2.3-2.3v-22C22.3,21.1,23.4,20,24.6,20z M23.1,10.6h13.8v-3H23.1V10.6z"/>
	</g>
</g>
</svg>
